<?xml version="1.0" standalone="no"?>
<!DOCTYPE svg PUBLIC "-//W3C//DTD SVG 20010904//EN"
 "http://www.w3.org/TR/2001/REC-SVG-20010904/DTD/svg10.dtd">
<svg version="1.0" xmlns="http://www.w3.org/2000/svg"
 width="1000.000000pt" height="1000.000000pt" viewBox="0 0 1000.000000 1000.000000"
 preserveAspectRatio="xMidYMid meet">
<metadata>
Created by potrace 1.14, written by Peter Selinger 2001-2017
</metadata>
<g transform="translate(0.000000,1000.000000) scale(0.100000,-0.100000)"
fill="#000000" stroke="none">
<path d="M0 5000 l0 -5000 5000 0 5000 0 0 5000 0 5000 -5000 0 -5000 0 0
-5000z m2431 3895 c1485 -1602 2096 -2263 2104 -2275 5 -9 -1 -7 -16 5 -36 29
-1203 981 -1588 1296 -179 147 -327 266 -328 265 -2 -1 18 -435 44 -963 25
-528 44 -967 41 -974 -3 -8 -269 -185 -591 -394 -526 -341 -583 -381 -559
-387 15 -5 236 -46 491 -93 255 -46 465 -86 467 -88 2 -2 -320 -177 -716 -388
-396 -211 -720 -386 -720 -389 0 -3 252 -104 560 -224 308 -121 560 -220 560
-222 0 -1 -82 -35 -182 -74 -101 -40 -186 -76 -190 -79 -4 -3 389 -179 873
-390 484 -212 886 -390 893 -395 7 -6 120 -365 251 -797 l239 -786 246 -274
c136 -151 246 -276 244 -278 -2 -2 -236 92 -521 208 l-519 212 -113 757 c-63
416 -118 761 -122 766 -5 5 -560 224 -1235 487 -674 262 -1222 479 -1217 482
4 2 107 37 228 77 121 40 224 76 228 80 4 4 -239 106 -540 228 l-548 221 150
71 c705 335 1116 535 1109 537 -5 1 -160 41 -344 89 -184 47 -341 89 -347 93
-8 4 108 89 295 215 169 115 507 344 751 510 l443 301 -6 415 c-9 597 -19
2376 -14 2370 2 -3 92 -99 199 -215z m5335 -747 c-3 -530 -9 -1156 -12 -1393
l-6 -430 751 -509 c413 -281 748 -512 745 -515 -3 -3 -163 -46 -355 -96 l-351
-91 627 -299 c345 -165 628 -302 630 -305 1 -3 -242 -104 -541 -224 -299 -121
-541 -223 -537 -227 5 -3 107 -39 228 -79 227 -75 232 -77 223 -85 -2 -3 -547
-216 -1211 -474 -664 -259 -1215 -475 -1225 -480 -15 -8 -35 -123 -131 -768
-63 -417 -115 -759 -116 -761 -4 -5 -1029 -422 -1037 -422 -5 0 104 124 240
276 l248 276 209 687 c115 377 224 734 242 792 l33 106 889 389 c490 214 887
392 883 395 -4 3 -88 39 -187 79 -99 40 -181 73 -182 74 -2 1 249 101 557 221
308 120 560 221 560 225 0 3 -324 178 -720 390 -396 211 -718 385 -716 387 1
2 222 43 491 93 268 49 489 91 490 92 2 2 -260 174 -582 383 -322 209 -588
386 -591 394 -3 8 16 446 41 974 26 528 46 961 44 962 -1 1 -394 -318 -873
-709 -479 -391 -918 -749 -975 -796 -83 -67 -97 -76 -69 -42 42 50 2283 2470
2289 2471 2 1 1 -432 -3 -961z m-4076 -3291 l355 -72 217 -355 c119 -195 215
-356 213 -358 -2 -2 -101 74 -222 168 l-218 172 -181 -3 -180 -4 -230 260
c-126 143 -235 268 -242 277 -15 19 -36 22 488 -85z m3109 86 c-8 -10 -117
-135 -243 -278 l-230 -260 -180 4 -181 3 -218 -172 c-121 -94 -220 -170 -222
-168 -2 2 94 163 214 358 l216 355 425 87 c234 47 427 86 429 87 2 1 -3 -7
-10 -16z m-1553 -3030 c132 -120 273 -247 313 -283 l73 -66 -157 -104 -158
-105 -155 -232 c-85 -128 -158 -233 -162 -233 -4 0 -77 105 -162 233 l-155
232 -157 105 c-124 83 -154 107 -144 116 50 48 614 554 618 554 3 0 113 -98
246 -217z"/>
</g>
</svg>
