<?xml version="1.0" standalone="no"?>
<!DOCTYPE svg PUBLIC "-//W3C//DTD SVG 20010904//EN"
 "http://www.w3.org/TR/2001/REC-SVG-20010904/DTD/svg10.dtd">
<svg version="1.0" xmlns="http://www.w3.org/2000/svg"
 width="300.000000pt" height="300.000000pt" viewBox="0 0 300.000000 300.000000"
 preserveAspectRatio="xMidYMid meet">
<metadata>
Created by potrace 1.14, written by Peter Selinger 2001-2017
</metadata>
<g transform="translate(0.000000,300.000000) scale(0.100000,-0.100000)"
fill="#000000" stroke="none">
<path d="M1350 2993 c-129 -18 -232 -41 -319 -70 -541 -180 -931 -644 -1016
-1212 -19 -130 -13 -372 14 -501 125 -604 584 -1061 1185 -1182 143 -29 384
-32 526 -7 198 34 395 107 545 202 366 230 608 585 692 1012 26 137 24 416 -6
555 -64 304 -200 558 -412 769 -204 205 -479 355 -744 407 -11 2 -45 9 -75 15
-53 11 -339 20 -390 12z m320 -38 c371 -44 720 -235 958 -523 149 -180 253
-393 301 -614 118 -543 -71 -1092 -497 -1446 -330 -274 -759 -387 -1183 -314
-647 113 -1138 641 -1206 1297 -12 117 -7 284 11 381 2 11 7 39 11 63 13 80
73 249 125 354 126 252 336 475 584 617 192 110 386 169 631 193 46 4 204 0
265 -8z"/>
<path d="M1360 2929 c-224 -28 -352 -67 -530 -160 -295 -154 -540 -427 -664
-737 -35 -88 -71 -211 -80 -280 -19 -128 -22 -174 -21 -275 3 -132 12 -208 42
-327 117 -478 500 -881 973 -1023 152 -46 253 -60 420 -60 245 0 436 45 648
153 478 243 785 735 786 1260 0 271 -42 449 -160 680 -79 154 -228 342 -344
435 -14 11 -46 36 -70 56 -166 132 -424 238 -670 274 -66 10 -266 13 -330 4z
m365 -43 c17 -4 50 -12 75 -17 516 -113 933 -520 1060 -1032 15 -62 30 -146
34 -187 8 -80 9 -249 2 -290 -3 -14 -7 -47 -11 -75 -12 -95 -49 -225 -95 -330
l-21 -50 -23 55 c-56 140 -143 251 -235 303 -48 28 -53 32 -32 35 37 6 108
-18 151 -49 34 -25 40 -26 40 -12 0 44 -99 137 -221 210 l-54 32 53 1 c61 0
155 29 228 71 51 29 144 105 144 117 0 4 -30 16 -67 26 -38 11 -146 43 -241
71 l-173 51 -157 120 c-86 66 -162 123 -168 127 -16 9 -87 16 -244 22 l-135 5
-145 76 c-343 178 -327 171 -357 154 -56 -30 -103 -178 -89 -274 5 -34 17 -58
41 -84 32 -35 32 -37 12 -47 -40 -20 -61 -62 -65 -130 -6 -94 0 -107 67 -149
58 -35 130 -99 181 -161 65 -78 150 -237 150 -282 0 -58 -33 -143 -72 -188
-35 -40 -37 -45 -19 -45 12 0 37 7 56 14 19 8 35 12 35 8 0 -11 -29 -52 -58
-84 l-24 -26 42 9 c24 5 51 14 62 20 11 6 22 8 26 5 3 -3 6 -67 8 -143 2 -163
-8 -201 -74 -275 l-47 -51 53 6 c28 3 52 4 52 2 0 -20 -35 -151 -51 -191 -29
-74 -88 -120 -161 -127 -73 -7 -321 79 -459 160 -177 103 -355 270 -466 438
-112 171 -162 296 -219 550 -3 17 -8 107 -9 200 -3 137 0 190 16 275 112 590
565 1034 1159 1135 77 13 387 14 445 1z m-255 -818 c104 -57 137 -82 195 -144
l71 -75 87 3 88 3 -105 63 c-59 35 -106 65 -106 67 0 2 30 3 68 2 l67 -1 67
-67 c45 -44 78 -88 98 -130 39 -83 39 -93 -2 -70 -35 20 -82 35 -137 45 -33 6
-32 5 36 -62 71 -69 115 -128 146 -196 l18 -39 -33 22 c-58 38 -125 70 -167
80 -23 5 -41 8 -41 6 0 -1 24 -20 53 -42 103 -78 169 -163 202 -258 19 -55 33
-205 19 -205 -5 0 -17 12 -27 28 -17 24 -87 82 -100 82 -3 0 -8 -20 -12 -45
-9 -61 -28 -104 -64 -142 -36 -40 -51 -42 -51 -7 0 58 -24 118 -62 156 -21 21
-42 38 -47 38 -5 0 -11 -18 -15 -41 -4 -22 -16 -60 -28 -82 -22 -44 -108 -161
-113 -155 -2 2 -5 40 -6 84 -4 183 -85 368 -227 517 -67 70 -57 70 83 2 105
-51 207 -131 267 -211 l42 -57 9 34 c42 161 -140 306 -492 393 -116 28 -136
36 -143 56 -12 32 7 50 52 50 58 0 196 -29 268 -56 53 -20 63 -21 58 -8 -3 9
-6 23 -6 33 0 29 -58 107 -100 135 -62 41 -144 127 -179 187 -34 59 -37 71
-18 64 7 -3 32 5 57 18 52 27 36 32 230 -75z m-326 40 c-4 -12 -7 -44 -7 -71
0 -39 -2 -46 -10 -31 -11 19 -13 97 -2 113 12 20 26 11 19 -11z m30 -290 c6
-25 4 -28 -19 -28 -25 0 -25 0 -10 31 19 35 20 35 29 -3z m128 -18 c4 -26 1
-30 -19 -30 -24 0 -24 0 -6 30 9 17 18 30 19 30 1 0 4 -13 6 -30z m1068 -93
c47 -14 126 -31 177 -38 51 -7 90 -16 87 -21 -7 -11 -110 -58 -165 -74 -100
-30 -206 -26 -277 10 -20 10 -14 12 45 14 57 2 179 25 190 36 2 2 -14 6 -35 9
-60 8 -110 36 -176 99 l-61 57 65 -34 c36 -18 103 -45 150 -58z m-29 -409 c32
-16 85 -57 118 -90 58 -58 118 -144 108 -155 -3 -2 -19 3 -35 11 l-31 16 4
-113 c5 -154 -32 -327 -49 -233 -8 41 -23 55 -32 29 -22 -62 -75 -175 -103
-218 -18 -27 -30 -42 -27 -33 2 9 8 34 12 55 l6 38 -29 -40 c-57 -76 -129
-129 -215 -158 -63 -21 -62 -7 6 57 50 48 83 92 74 102 -3 2 -51 -17 -108 -42
-64 -28 -140 -53 -197 -63 -61 -12 -106 -27 -133 -45 -39 -26 -109 -110 -110
-132 0 -6 -7 -17 -15 -24 -12 -10 -14 -6 -10 33 11 107 75 192 209 280 138 90
138 90 146 77 5 -8 16 -9 31 -5 28 9 129 74 129 83 0 4 19 27 41 51 22 25 40
38 39 30 -1 -8 -2 -25 -1 -39 l1 -25 30 30 c31 31 70 126 70 170 0 31 16 32
40 3 l18 -23 8 30 c13 51 9 158 -10 212 -9 28 -35 79 -56 112 l-39 59 27 -4
c15 -3 52 -19 83 -36z m389 -385 l29 -28 -18 -34 -18 -33 -15 61 c-8 33 -13
61 -11 61 2 0 17 -12 33 -27z"/>
<path d="M2020 2707 c0 -3 17 -16 38 -28 133 -81 322 -265 418 -410 82 -123
151 -269 132 -280 -10 -7 -9 -9 3 -9 16 0 38 -62 70 -192 15 -62 34 -64 25 -2
-9 65 -71 246 -113 329 -92 182 -243 361 -407 484 -94 69 -166 116 -166 108z"/>
<path d="M899 2661 c-80 -53 -176 -131 -233 -190 -27 -27 -54 -47 -59 -44 -6
3 -7 2 -4 -4 3 -5 -16 -36 -42 -69 -260 -322 -355 -762 -260 -1203 11 -53 21
-105 22 -116 1 -11 5 -22 8 -25 3 -3 20 -42 38 -87 67 -168 171 -323 298 -444
70 -67 223 -186 223 -174 0 2 -26 23 -57 47 -74 54 -223 197 -223 213 0 7 -6
15 -13 18 -21 8 -124 167 -166 258 -81 172 -124 345 -137 553 l-7 104 37 -3
c20 -1 34 1 30 4 -3 3 -18 6 -32 6 -26 1 -27 3 -26 55 0 53 8 138 20 210 3 19
17 72 30 117 13 46 24 85 24 88 0 3 10 6 23 6 16 1 18 2 4 6 -9 2 -17 7 -17
10 0 2 20 47 45 98 69 145 203 333 226 319 5 -3 6 1 4 8 -7 16 92 113 186 184
36 27 79 59 95 71 45 34 25 25 -37 -16z"/>
<path d="M1215 2673 c-84 -72 -116 -104 -176 -173 -44 -51 -71 -74 -83 -72
-10 2 -23 -1 -28 -6 -7 -7 -5 -10 8 -8 29 5 37 -4 19 -24 -43 -47 -120 -196
-165 -320 l-28 -75 -173 -5 c-169 -6 -142 -10 79 -13 l84 -1 -5 -26 c-38 -195
-48 -259 -53 -340 -4 -52 -7 -96 -8 -97 -1 -1 -73 -3 -159 -4 -86 -2 -157 -5
-157 -9 0 -4 71 -7 157 -9 87 -1 158 -3 159 -4 1 -1 5 -58 8 -127 3 -69 13
-163 22 -210 25 -138 33 -125 -71 -127 -194 -4 -213 -7 -61 -13 l159 -5 30
-95 c17 -52 56 -146 88 -208 31 -61 54 -114 50 -116 -3 -2 -25 -2 -48 -1 -23
1 -40 -2 -38 -6 3 -3 27 -5 55 -4 50 1 51 1 92 -54 23 -31 71 -85 107 -121 36
-36 50 -47 31 -25 -19 22 -38 42 -41 45 -13 11 -109 141 -109 148 0 4 23 7 50
6 28 -2 50 1 50 6 0 4 -25 7 -56 5 -53 -2 -57 0 -75 29 -52 83 -130 271 -153
369 l-6 27 201 -2 202 -3 4 -25 c2 -14 10 -63 19 -110 9 -47 18 -96 20 -110 3
-14 9 -39 15 -56 5 -17 12 -41 14 -53 2 -13 7 -31 10 -42 6 -19 -11 -25 -52
-20 -7 1 -13 -3 -13 -9 0 -6 15 -9 37 -8 37 3 37 3 62 -60 27 -70 40 -78 17
-11 -26 73 -25 74 54 73 39 -1 72 2 75 6 3 4 -29 8 -70 7 -42 0 -79 4 -84 9
-15 16 -62 238 -77 362 l-6 52 65 0 c36 0 69 5 72 10 4 6 -21 10 -68 10 l-74
0 -8 113 c-5 61 -8 164 -9 227 -1 113 -1 115 22 114 26 -1 31 25 5 27 -10 1
-22 1 -27 0 -5 -1 -6 5 -3 13 3 8 0 20 -8 26 -11 9 -14 6 -17 -12 l-3 -23
-215 0 c-138 0 -215 4 -214 10 1 6 5 59 8 119 4 60 8 111 10 115 2 3 7 22 10
41 10 64 28 145 37 161 6 13 27 15 123 13 64 -1 118 2 122 7 3 5 -45 9 -116 9
-140 0 -132 -14 -78 125 52 133 153 309 171 298 6 -3 7 -1 4 5 -10 15 62 103
161 200 84 81 105 106 47 55z m-66 -1296 c1 -62 4 -146 8 -187 3 -41 6 -95 7
-119 l1 -44 -197 0 c-109 -1 -199 1 -202 4 -6 6 -35 171 -40 234 -5 49 -9 187
-7 213 1 9 49 12 214 12 l213 -1 3 -112z"/>
<path d="M1835 2615 c95 -94 171 -185 156 -185 -6 0 -11 -5 -11 -11 0 -5 4 -8
9 -4 15 8 35 -18 90 -113 45 -80 131 -277 131 -302 0 -5 -9 -10 -21 -10 -11 0
-18 -4 -14 -9 3 -6 14 -8 24 -6 13 2 21 -4 25 -20 9 -34 33 -40 28 -6 l-4 27
142 1 c78 1 144 4 147 7 4 3 -62 6 -146 6 -136 0 -152 2 -157 18 -37 112 -108
264 -163 347 -43 64 -45 69 -33 61 7 -4 12 -2 12 3 0 6 -8 11 -17 11 -10 0
-28 15 -40 32 -30 43 -143 159 -195 199 -24 19 -8 -1 37 -46z"/>
<path d="M1381 2636 c-6 -7 -29 -55 -50 -107 -42 -99 -53 -109 -108 -102 -20
3 -33 0 -33 -6 0 -6 3 -10 8 -10 4 1 24 1 46 0 41 -1 41 -2 20 -73 -3 -10 -1
-18 5 -18 6 0 11 6 11 13 0 6 4 28 10 47 l10 35 197 -2 c108 -2 200 -6 203
-10 8 -9 55 -195 65 -253 7 -41 12 -48 20 -27 7 16 -51 255 -66 273 -14 18 4
20 134 19 64 -1 117 2 117 5 0 4 -56 7 -126 7 -69 0 -129 4 -133 9 -5 5 -25
51 -46 102 -21 51 -42 95 -46 97 -4 3 8 -32 27 -78 18 -46 35 -94 36 -107 l3
-23 -178 -1 c-99 -1 -183 2 -188 5 -12 7 11 79 50 162 29 60 30 65 12 43z"/>
<path d="M747 2419 c7 -7 15 -10 18 -7 3 3 -2 9 -12 12 -14 6 -15 5 -6 -5z"/>
<path d="M786 2421 c8 -8 63 -10 68 -3 2 4 -13 7 -35 7 -21 1 -36 -1 -33 -4z"/>
<path d="M890 2420 c0 -5 5 -10 10 -10 6 0 10 5 10 10 0 6 -4 10 -10 10 -5 0
-10 -4 -10 -10z"/>
<path d="M1020 2422 c0 -4 9 -8 20 -9 11 -1 20 2 20 5 0 4 -9 8 -20 9 -11 1
-20 -2 -20 -5z"/>
<path d="M1070 2420 c0 -4 25 -7 55 -6 30 0 55 3 55 7 0 3 -25 6 -55 7 -30 0
-55 -3 -55 -8z"/>
<path d="M2090 2420 c0 -5 5 -10 10 -10 6 0 10 5 10 10 0 6 -4 10 -10 10 -5 0
-10 -4 -10 -10z"/>
<path d="M2126 2421 c7 -8 84 -9 88 -2 2 3 -18 6 -44 6 -27 1 -47 -2 -44 -4z"/>
<path d="M2274 2422 c4 -3 14 -7 22 -8 9 -1 13 0 10 4 -4 3 -14 7 -22 8 -9 1
-13 0 -10 -4z"/>
<path d="M2558 1983 c6 -2 18 -2 25 0 6 3 1 5 -13 5 -14 0 -19 -2 -12 -5z"/>
<path d="M2723 1543 c-7 -2 -13 -13 -13 -23 0 -13 -6 -18 -20 -15 -11 2 -22 0
-25 -4 -2 -5 5 -8 18 -7 21 1 22 -2 21 -74 -1 -41 -3 -99 -4 -128 -2 -29 1
-57 7 -63 6 -6 10 -5 10 3 0 7 3 36 7 64 6 45 16 255 13 253 -1 0 -8 -3 -14
-6z"/>
<path d="M383 1013 c9 -2 23 -2 30 0 6 3 -1 5 -18 5 -16 0 -22 -2 -12 -5z"/>
<path d="M730 580 c0 -5 5 -10 11 -10 5 0 7 5 4 10 -3 6 -8 10 -11 10 -2 0 -4
-4 -4 -10z"/>
<path d="M775 580 c-3 -5 -1 -10 4 -10 6 0 11 5 11 10 0 6 -2 10 -4 10 -3 0
-8 -4 -11 -10z"/>
<path d="M1070 580 c0 -3 25 -7 55 -8 30 0 55 2 55 6 0 4 -25 8 -55 8 -30 1
-55 -2 -55 -6z"/>
<path d="M1350 371 c0 -6 4 -13 10 -16 6 -3 7 1 4 9 -7 18 -14 21 -14 7z"/>
<path d="M1165 320 c10 -11 20 -20 23 -20 3 0 -3 9 -13 20 -10 11 -20 20 -23
20 -3 0 3 -9 13 -20z"/>
</g>
</svg>
