<?xml version="1.0" encoding="UTF-8"?><svg id="a" xmlns="http://www.w3.org/2000/svg" viewBox="0 0 800 685.71"><defs><style>.b{fill:#e1b77e;}</style></defs><polygon class="b" points="443.03 420.64 479.7 360.44 550.8 346.14 510.38 392.04 480.45 391.29 443.03 420.64"/><polygon class="b" points="356.97 420.64 320.3 360.44 249.2 346.14 289.62 392.04 319.55 391.29 356.97 420.64"/><polygon class="b" points="400 581.43 347.74 628.66 373.56 646.04 400 685.71 426.45 646.04 452.26 628.66 400 581.43"/><polygon class="b" points="436.52 677 523.61 641.44 542.81 514.19 748.36 434.18 707.72 420.64 800 383.39 694.33 332.89 754.35 317.29 629.12 232.27 630.87 0 436.52 209.71 600.19 76.25 592.33 238.79 691.49 303.25 608.17 318.55 729.65 383.39 635.11 420.38 667.54 433.43 518.37 498.64 478.2 630.58 436.52 677"/><polygon class="b" points="363.48 677 276.39 641.44 257.19 514.19 51.64 434.18 92.28 420.64 0 383.39 105.67 332.89 45.65 317.29 170.88 232.27 169.13 0 363.48 209.71 199.81 76.25 207.67 238.79 108.51 303.25 191.83 318.55 70.35 383.39 164.89 420.38 132.46 433.43 281.63 498.64 321.8 630.58 363.48 677"/></svg>