<?xml version="1.0" encoding="UTF-8"?><svg id="a" xmlns="http://www.w3.org/2000/svg" viewBox="0 0 800 800"><defs><style>.b{fill:#e1b77e;}</style></defs><path class="b" d="M95.86,389.7l-62.02-16.12,129.4-87.86-1.56-206.97C63.58,151.64,0,268.39,0,400c0,11.72,.61,23.29,1.6,34.75l94.26-45.05Z"/><path class="b" d="M717.98,480.37l41.99,14-212.4,82.68-19.84,131.49-90,36.75,43.07-47.97,41.5-136.33,154.15-67.39-33.51-13.48,97.7-38.23-125.53-67,86.1-15.81-102.46-66.61,8.12-167.95-169.12,137.91,182.13-196.53C556.77,24.28,481.24,0,400,0S243.23,24.28,180.13,65.89l182.13,196.53L193.14,124.51l8.12,167.95-102.46,66.61,86.1,15.81-125.53,67,97.7,38.23-33.51,13.48,154.15,67.39,41.5,136.33,43.07,47.97-90-36.75-19.84-131.49L40.02,494.37l41.99-14L3.03,448.49c23.95,198.03,192.48,351.51,396.97,351.51s373.02-153.48,396.97-351.51l-78.99,31.88Zm-235.62-62.2l73.47-14.78-41.76,47.43-30.93-.78-38.67,30.33,37.89-62.2Zm-165.49,31.88l-30.93,.78-41.76-47.43,73.47,14.78,37.89,62.2-38.67-30.33Zm83.13,304.24l-27.33-40.99-26.67-17.96,54-48.8,54,48.8-26.67,17.96-27.33,40.99Z"/><path class="b" d="M636.76,285.72l129.4,87.86-62.02,16.12,94.26,45.05c.99-11.46,1.6-23.03,1.6-34.75,0-131.61-63.58-248.36-161.68-321.25l-1.56,206.97Z"/></svg>